<mxfile host="app.diagrams.net" agent="Mozilla/5.0 (Windows NT 10.0; Win64; x64) AppleWebKit/537.36 (KHTML, like Gecko) Chrome/131.0.0.0 Safari/537.36" version="26.0.2">
  <diagram name="Page-1" id="jNBsh2G8yLulVsJa_eYQ">
    <mxGraphModel dx="1050" dy="574" grid="1" gridSize="10" guides="1" tooltips="1" connect="1" arrows="1" fold="1" page="1" pageScale="1" pageWidth="850" pageHeight="1100" math="0" shadow="0">
      <root>
        <mxCell id="0" />
        <mxCell id="1" parent="0" />
        <mxCell id="D5Spg7gxs0L6y61oAlbP-1" value="Project Kickoff" style="fillColor=#f8cecc;strokeColor=#b85450;" vertex="1" parent="1">
          <mxGeometry x="853" y="20" width="166" height="54" as="geometry" />
        </mxCell>
        <mxCell id="D5Spg7gxs0L6y61oAlbP-2" value="Requirements Gathering" style="fillColor=#f8cecc;strokeColor=#b85450;" vertex="1" parent="1">
          <mxGeometry x="818" y="124" width="236" height="54" as="geometry" />
        </mxCell>
        <mxCell id="D5Spg7gxs0L6y61oAlbP-3" value="Feature Design" style="fillColor=#f8cecc;strokeColor=#b85450;" vertex="1" parent="1">
          <mxGeometry x="852" y="228" width="168" height="54" as="geometry" />
        </mxCell>
        <mxCell id="D5Spg7gxs0L6y61oAlbP-4" value="Frontend Development" style="fillColor=#f8cecc;strokeColor=#b85450;" vertex="1" parent="1">
          <mxGeometry x="37" y="668" width="226" height="54" as="geometry" />
        </mxCell>
        <mxCell id="D5Spg7gxs0L6y61oAlbP-5" value="Backend Development" style="fillColor=#f8cecc;strokeColor=#b85450;" vertex="1" parent="1">
          <mxGeometry x="826" y="332" width="221" height="54" as="geometry" />
        </mxCell>
        <mxCell id="D5Spg7gxs0L6y61oAlbP-6" value="React Components for UI" style="fillColor=#f8cecc;strokeColor=#b85450;" vertex="1" parent="1">
          <mxGeometry x="30" y="772" width="240" height="54" as="geometry" />
        </mxCell>
        <mxCell id="D5Spg7gxs0L6y61oAlbP-7" value="Kanban Board &amp; Collaboration Features" style="fillColor=#f8cecc;strokeColor=#b85450;" vertex="1" parent="1">
          <mxGeometry x="20" y="876" width="260" height="78" as="geometry" />
        </mxCell>
        <mxCell id="D5Spg7gxs0L6y61oAlbP-8" value="MongoDB Schema Design" style="fillColor=#f8cecc;strokeColor=#b85450;" vertex="1" parent="1">
          <mxGeometry x="629" y="436" width="237" height="54" as="geometry" />
        </mxCell>
        <mxCell id="D5Spg7gxs0L6y61oAlbP-9" value="RESTful API &amp; Real-Time Updates" style="fillColor=#f8cecc;strokeColor=#b85450;" vertex="1" parent="1">
          <mxGeometry x="618" y="540" width="260" height="78" as="geometry" />
        </mxCell>
        <mxCell id="D5Spg7gxs0L6y61oAlbP-10" value="AI Features Development" style="fillColor=#f8cecc;strokeColor=#b85450;" vertex="1" parent="1">
          <mxGeometry x="626" y="668" width="243" height="54" as="geometry" />
        </mxCell>
        <mxCell id="D5Spg7gxs0L6y61oAlbP-11" value="Smart Task Assignment" style="fillColor=#f8cecc;strokeColor=#b85450;" vertex="1" parent="1">
          <mxGeometry x="320" y="772" width="225" height="54" as="geometry" />
        </mxCell>
        <mxCell id="D5Spg7gxs0L6y61oAlbP-12" value="Predictive Analytics" style="fillColor=#f8cecc;strokeColor=#b85450;" vertex="1" parent="1">
          <mxGeometry x="595" y="772" width="203" height="54" as="geometry" />
        </mxCell>
        <mxCell id="D5Spg7gxs0L6y61oAlbP-13" value="Testing" style="fillColor=#f8cecc;strokeColor=#b85450;" vertex="1" parent="1">
          <mxGeometry x="849" y="772" width="111" height="54" as="geometry" />
        </mxCell>
        <mxCell id="D5Spg7gxs0L6y61oAlbP-14" value="Functional Testing" style="fillColor=#f8cecc;strokeColor=#b85450;" vertex="1" parent="1">
          <mxGeometry x="443" y="888" width="193" height="54" as="geometry" />
        </mxCell>
        <mxCell id="D5Spg7gxs0L6y61oAlbP-15" value="Performance Testing" style="fillColor=#f8cecc;strokeColor=#b85450;" vertex="1" parent="1">
          <mxGeometry x="686" y="888" width="208" height="54" as="geometry" />
        </mxCell>
        <mxCell id="D5Spg7gxs0L6y61oAlbP-16" value="End-to-End Testing" style="fillColor=#f8cecc;strokeColor=#b85450;" vertex="1" parent="1">
          <mxGeometry x="944" y="888" width="195" height="54" as="geometry" />
        </mxCell>
        <mxCell id="D5Spg7gxs0L6y61oAlbP-17" value="Documentation &amp; Deployment" style="fillColor=#f8cecc;strokeColor=#b85450;" vertex="1" parent="1">
          <mxGeometry x="1189" y="876" width="260" height="78" as="geometry" />
        </mxCell>
        <mxCell id="D5Spg7gxs0L6y61oAlbP-18" value="Project Completed" style="fillColor=#f8cecc;strokeColor=#b85450;" vertex="1" parent="1">
          <mxGeometry x="1222" y="1016" width="195" height="54" as="geometry" />
        </mxCell>
        <mxCell id="D5Spg7gxs0L6y61oAlbP-19" value="Dashboard Features" style="fillColor=#f8cecc;strokeColor=#b85450;" vertex="1" parent="1">
          <mxGeometry x="1096" y="332" width="203" height="54" as="geometry" />
        </mxCell>
        <mxCell id="D5Spg7gxs0L6y61oAlbP-20" value="Team Collaboration Features" style="fillColor=#f8cecc;strokeColor=#b85450;" vertex="1" parent="1">
          <mxGeometry x="20" y="1004" width="260" height="78" as="geometry" />
        </mxCell>
        <mxCell id="D5Spg7gxs0L6y61oAlbP-21" value="" style="curved=1;startArrow=circle;startFill=0;endArrow=circle;endFill=0;exitX=0.5;exitY=1;entryX=0.5;entryY=0;rounded=0;fillColor=#f8cecc;strokeColor=#b85450;" edge="1" parent="1" source="D5Spg7gxs0L6y61oAlbP-1" target="D5Spg7gxs0L6y61oAlbP-2">
          <mxGeometry relative="1" as="geometry">
            <Array as="points" />
          </mxGeometry>
        </mxCell>
        <mxCell id="D5Spg7gxs0L6y61oAlbP-22" value="" style="curved=1;startArrow=none;endArrow=circle;endFill=0;exitX=0.5;exitY=1;entryX=0.5;entryY=0;rounded=0;fillColor=#f8cecc;strokeColor=#b85450;" edge="1" parent="1" source="D5Spg7gxs0L6y61oAlbP-2" target="D5Spg7gxs0L6y61oAlbP-3">
          <mxGeometry relative="1" as="geometry">
            <Array as="points" />
          </mxGeometry>
        </mxCell>
        <mxCell id="D5Spg7gxs0L6y61oAlbP-23" value="" style="curved=1;startArrow=none;endArrow=circle;endFill=0;exitX=0;exitY=0.6;entryX=0.5;entryY=0;rounded=0;fillColor=#f8cecc;strokeColor=#b85450;" edge="1" parent="1" source="D5Spg7gxs0L6y61oAlbP-3" target="D5Spg7gxs0L6y61oAlbP-4">
          <mxGeometry relative="1" as="geometry">
            <Array as="points">
              <mxPoint x="150" y="307" />
            </Array>
          </mxGeometry>
        </mxCell>
        <mxCell id="D5Spg7gxs0L6y61oAlbP-24" value="" style="curved=1;startArrow=none;endArrow=circle;endFill=0;exitX=0.5;exitY=1;entryX=0.5;entryY=0;rounded=0;fillColor=#f8cecc;strokeColor=#b85450;" edge="1" parent="1" source="D5Spg7gxs0L6y61oAlbP-3" target="D5Spg7gxs0L6y61oAlbP-5">
          <mxGeometry relative="1" as="geometry">
            <Array as="points" />
          </mxGeometry>
        </mxCell>
        <mxCell id="D5Spg7gxs0L6y61oAlbP-25" value="" style="curved=1;startArrow=none;endArrow=circle;endFill=0;exitX=0.5;exitY=1;entryX=0.5;entryY=0;rounded=0;fillColor=#f8cecc;strokeColor=#b85450;" edge="1" parent="1" source="D5Spg7gxs0L6y61oAlbP-4" target="D5Spg7gxs0L6y61oAlbP-6">
          <mxGeometry relative="1" as="geometry">
            <Array as="points" />
          </mxGeometry>
        </mxCell>
        <mxCell id="D5Spg7gxs0L6y61oAlbP-26" value="" style="curved=1;startArrow=none;endArrow=circle;endFill=0;exitX=0.5;exitY=1;entryX=0.5;entryY=0;rounded=0;fillColor=#f8cecc;strokeColor=#b85450;" edge="1" parent="1" source="D5Spg7gxs0L6y61oAlbP-6" target="D5Spg7gxs0L6y61oAlbP-7">
          <mxGeometry relative="1" as="geometry">
            <Array as="points" />
          </mxGeometry>
        </mxCell>
        <mxCell id="D5Spg7gxs0L6y61oAlbP-27" value="" style="curved=1;startArrow=none;endArrow=circle;endFill=0;exitX=0.06;exitY=1;entryX=0.5;entryY=0;rounded=0;fillColor=#f8cecc;strokeColor=#b85450;" edge="1" parent="1" source="D5Spg7gxs0L6y61oAlbP-5" target="D5Spg7gxs0L6y61oAlbP-8">
          <mxGeometry relative="1" as="geometry">
            <Array as="points">
              <mxPoint x="748" y="411" />
            </Array>
          </mxGeometry>
        </mxCell>
        <mxCell id="D5Spg7gxs0L6y61oAlbP-28" value="" style="curved=1;startArrow=none;endArrow=circle;endFill=0;exitX=0.5;exitY=1;entryX=0.5;entryY=0;rounded=0;fillColor=#f8cecc;strokeColor=#b85450;" edge="1" parent="1" source="D5Spg7gxs0L6y61oAlbP-8" target="D5Spg7gxs0L6y61oAlbP-9">
          <mxGeometry relative="1" as="geometry">
            <Array as="points" />
          </mxGeometry>
        </mxCell>
        <mxCell id="D5Spg7gxs0L6y61oAlbP-29" value="" style="curved=1;startArrow=none;endArrow=circle;endFill=0;exitX=0.5;exitY=1;entryX=0.5;entryY=0;rounded=0;fillColor=#f8cecc;strokeColor=#b85450;" edge="1" parent="1" source="D5Spg7gxs0L6y61oAlbP-9" target="D5Spg7gxs0L6y61oAlbP-10">
          <mxGeometry relative="1" as="geometry">
            <Array as="points" />
          </mxGeometry>
        </mxCell>
        <mxCell id="D5Spg7gxs0L6y61oAlbP-30" value="" style="curved=1;startArrow=none;endArrow=circle;endFill=0;exitX=0;exitY=0.87;entryX=0.5;entryY=0;rounded=0;fillColor=#f8cecc;strokeColor=#b85450;" edge="1" parent="1" source="D5Spg7gxs0L6y61oAlbP-10" target="D5Spg7gxs0L6y61oAlbP-11">
          <mxGeometry relative="1" as="geometry">
            <Array as="points">
              <mxPoint x="434" y="747" />
            </Array>
          </mxGeometry>
        </mxCell>
        <mxCell id="D5Spg7gxs0L6y61oAlbP-31" value="" style="curved=1;startArrow=none;endArrow=circle;endFill=0;exitX=0.39;exitY=1;entryX=0.5;entryY=0;rounded=0;fillColor=#f8cecc;strokeColor=#b85450;" edge="1" parent="1" source="D5Spg7gxs0L6y61oAlbP-10" target="D5Spg7gxs0L6y61oAlbP-12">
          <mxGeometry relative="1" as="geometry">
            <Array as="points">
              <mxPoint x="698" y="747" />
            </Array>
          </mxGeometry>
        </mxCell>
        <mxCell id="D5Spg7gxs0L6y61oAlbP-32" value="" style="curved=1;startArrow=none;endArrow=circle;endFill=0;exitX=0.83;exitY=1;entryX=0;entryY=0.41;rounded=0;fillColor=#f8cecc;strokeColor=#b85450;" edge="1" parent="1" source="D5Spg7gxs0L6y61oAlbP-4" target="D5Spg7gxs0L6y61oAlbP-13">
          <mxGeometry relative="1" as="geometry">
            <Array as="points">
              <mxPoint x="292" y="747" />
            </Array>
          </mxGeometry>
        </mxCell>
        <mxCell id="D5Spg7gxs0L6y61oAlbP-33" value="" style="curved=1;startArrow=none;endArrow=block;exitX=0.52;exitY=1;entryX=0.69;entryY=0;rounded=0;fillColor=#f8cecc;strokeColor=#b85450;" edge="1" parent="1" source="D5Spg7gxs0L6y61oAlbP-5" target="D5Spg7gxs0L6y61oAlbP-13">
          <mxGeometry relative="1" as="geometry">
            <Array as="points">
              <mxPoint x="945" y="411" />
              <mxPoint x="945" y="747" />
            </Array>
          </mxGeometry>
        </mxCell>
        <mxCell id="D5Spg7gxs0L6y61oAlbP-34" value="" style="curved=1;startArrow=none;endArrow=block;exitX=0.64;exitY=1;entryX=0.06;entryY=0;rounded=0;fillColor=#f8cecc;strokeColor=#b85450;" edge="1" parent="1" source="D5Spg7gxs0L6y61oAlbP-10" target="D5Spg7gxs0L6y61oAlbP-13">
          <mxGeometry relative="1" as="geometry">
            <Array as="points">
              <mxPoint x="811" y="747" />
            </Array>
          </mxGeometry>
        </mxCell>
        <mxCell id="D5Spg7gxs0L6y61oAlbP-35" value="" style="curved=1;startArrow=none;endArrow=circle;endFill=0;exitX=0;exitY=0.65;entryX=0.5;entryY=0;rounded=0;fillColor=#f8cecc;strokeColor=#b85450;" edge="1" parent="1" source="D5Spg7gxs0L6y61oAlbP-13" target="D5Spg7gxs0L6y61oAlbP-14">
          <mxGeometry relative="1" as="geometry">
            <Array as="points">
              <mxPoint x="540" y="851" />
            </Array>
          </mxGeometry>
        </mxCell>
        <mxCell id="D5Spg7gxs0L6y61oAlbP-36" value="" style="curved=1;startArrow=none;endArrow=circle;endFill=0;exitX=0;exitY=0.97;entryX=0.5;entryY=0;rounded=0;fillColor=#f8cecc;strokeColor=#b85450;" edge="1" parent="1" source="D5Spg7gxs0L6y61oAlbP-13" target="D5Spg7gxs0L6y61oAlbP-15">
          <mxGeometry relative="1" as="geometry">
            <Array as="points">
              <mxPoint x="790" y="851" />
            </Array>
          </mxGeometry>
        </mxCell>
        <mxCell id="D5Spg7gxs0L6y61oAlbP-37" value="" style="curved=1;startArrow=none;endArrow=circle;endFill=0;exitX=1;exitY=0.89;entryX=0.5;entryY=0;rounded=0;fillColor=#f8cecc;strokeColor=#b85450;" edge="1" parent="1" source="D5Spg7gxs0L6y61oAlbP-13" target="D5Spg7gxs0L6y61oAlbP-16">
          <mxGeometry relative="1" as="geometry">
            <Array as="points">
              <mxPoint x="1042" y="851" />
            </Array>
          </mxGeometry>
        </mxCell>
        <mxCell id="D5Spg7gxs0L6y61oAlbP-38" value="" style="curved=1;startArrow=none;endArrow=circle;endFill=0;exitX=1;exitY=0.63;entryX=0.5;entryY=0;rounded=0;fillColor=#f8cecc;strokeColor=#b85450;" edge="1" parent="1" source="D5Spg7gxs0L6y61oAlbP-13" target="D5Spg7gxs0L6y61oAlbP-17">
          <mxGeometry relative="1" as="geometry">
            <Array as="points">
              <mxPoint x="1319" y="851" />
            </Array>
          </mxGeometry>
        </mxCell>
        <mxCell id="D5Spg7gxs0L6y61oAlbP-39" value="" style="curved=1;startArrow=none;endArrow=circle;endFill=0;exitX=0.5;exitY=1;entryX=0.5;entryY=0;rounded=0;fillColor=#f8cecc;strokeColor=#b85450;" edge="1" parent="1" source="D5Spg7gxs0L6y61oAlbP-17" target="D5Spg7gxs0L6y61oAlbP-18">
          <mxGeometry relative="1" as="geometry">
            <Array as="points" />
          </mxGeometry>
        </mxCell>
        <mxCell id="D5Spg7gxs0L6y61oAlbP-40" value="" style="curved=1;startArrow=none;endArrow=circle;endFill=0;exitX=1;exitY=0.81;entryX=0.5;entryY=0;rounded=0;fillColor=#f8cecc;strokeColor=#b85450;" edge="1" parent="1" source="D5Spg7gxs0L6y61oAlbP-3" target="D5Spg7gxs0L6y61oAlbP-19">
          <mxGeometry relative="1" as="geometry">
            <Array as="points">
              <mxPoint x="1198" y="307" />
            </Array>
          </mxGeometry>
        </mxCell>
        <mxCell id="D5Spg7gxs0L6y61oAlbP-41" value="" style="curved=1;startArrow=none;endArrow=circle;endFill=0;exitX=0.5;exitY=1;entryX=0.5;entryY=0;rounded=0;fillColor=#f8cecc;strokeColor=#b85450;" edge="1" parent="1" source="D5Spg7gxs0L6y61oAlbP-7" target="D5Spg7gxs0L6y61oAlbP-20">
          <mxGeometry relative="1" as="geometry">
            <Array as="points" />
          </mxGeometry>
        </mxCell>
        <mxCell id="D5Spg7gxs0L6y61oAlbP-42" value="" style="curved=1;startArrow=none;endArrow=block;exitX=0.72;exitY=1;entryX=0.26;entryY=0;rounded=0;fillColor=#f8cecc;strokeColor=#b85450;" edge="1" parent="1" source="D5Spg7gxs0L6y61oAlbP-10" target="D5Spg7gxs0L6y61oAlbP-13">
          <mxGeometry relative="1" as="geometry">
            <Array as="points">
              <mxPoint x="852" y="747" />
            </Array>
          </mxGeometry>
        </mxCell>
      </root>
    </mxGraphModel>
  </diagram>
</mxfile>
